<?xml version="1.0" encoding="utf-8"?>
<!-- Generator: Adobe Illustrator 19.0.0, SVG Export Plug-In . SVG Version: 6.00 Build 0)  -->
<svg version="1.1" id="Layer_1" xmlns="http://www.w3.org/2000/svg" xmlns:xlink="http://www.w3.org/1999/xlink" x="0px" y="0px"
	 viewBox="0 0 75 63" style="enable-background:new 0 0 75 63;" xml:space="preserve">
<style type="text/css">
	.st0{fill:#FFFFFF;}
	.st1{fill:none;}
	.st2{fill:#FF9595;}
</style>
<g id="XMLID_3_">
	
		<rect id="XMLID_4_" x="-744.4" y="-272.1" transform="matrix(0.9971 -7.586767e-02 7.586767e-02 0.9971 12.8316 -51.1486)" class="st0" width="155.2" height="155.2"/>
	<g id="XMLID_2_">
		<path id="XMLID_9_" class="st1" d="M-736.1-194.4c21.6,0.3,38.9,17.9,38.9,39.5c0,14.1-7.4,26.5-18.5,33.5l123.1-9.4l-3.9-50.9
			c-27.8-7.1-48.4-32.4-48.4-62.5c0-7.6,1.3-14.9,3.7-21.6l-99.8,7.6L-736.1-194.4z"/>
		<path id="XMLID_10_" d="M-596.5-181.6l3.9,50.9l-123.1,9.4c-6.1,3.8-13.3,6-21,6c-3.6,0-7.1-0.5-10.5-1.4l1.1,14.7l171.6-13.1
			l-4.9-64.5c-0.4,0-0.7,0-1.1,0C-586-179.6-591.4-180.3-596.5-181.6z"/>
		<path id="XMLID_11_" d="M-736.1-194.4l-4.8-63.7l99.8-7.6c2.3-6.4,5.6-12.4,9.7-17.7l-127.7,9.7l6.3,82.7
			c4.9-2.2,10.4-3.4,16.1-3.4C-736.5-194.5-736.3-194.4-736.1-194.4z"/>
		<path id="XMLID_12_" d="M-596.5-181.6l-6.6-87l-38,2.9c-2.4,6.8-3.7,14-3.7,21.6C-644.9-214-624.3-188.8-596.5-181.6z"/>
		<path id="XMLID_13_" d="M-515.9-244.1c0-35.6-28.9-64.5-64.5-64.5c-20.8,0-39.3,9.8-51,25.1l44-3.3l8.2,107.2
			C-544.2-180.2-515.9-208.8-515.9-244.1z"/>
		<path id="XMLID_14_" class="st0" d="M-631.5-283.5c-4.1,5.3-7.4,11.3-9.7,17.7l38-2.9l6.6,87c5.1,1.3,10.5,2,16.1,2
			c0.4,0,0.7,0,1.1,0l-8.2-107.2L-631.5-283.5z"/>
		<path id="XMLID_15_" d="M-697.2-154.9c0-21.6-17.4-39.2-38.9-39.5l5.6,74.2l14.8-1.1C-704.6-128.4-697.2-140.8-697.2-154.9z"/>
		<path id="XMLID_16_" d="M-776.3-154.9c0,18.2,12.3,33.5,29.1,38.1l-5.6-74.2C-766.6-184.8-776.3-171-776.3-154.9z"/>
		<path id="XMLID_17_" class="st0" d="M-715.7-121.4l-14.8,1.1l-5.6-74.2c-0.2,0-0.4,0-0.6,0c-5.7,0-11.2,1.2-16.1,3.4l5.6,74.2
			c3.3,0.9,6.9,1.4,10.5,1.4C-729-115.4-721.8-117.6-715.7-121.4z"/>
	</g>
</g>
<g id="XMLID_92_">
	
		<rect id="XMLID_103_" x="10.8" y="13.3" transform="matrix(0.9971 -7.586767e-02 7.586767e-02 0.9971 -2.5363 2.543)" class="st2" width="42.7" height="42.7"/>
	<g id="XMLID_93_">
		<path id="XMLID_102_" class="st1" d="M13.1,34.7c5.9,0.1,10.7,4.9,10.7,10.9c0,3.9-2,7.3-5.1,9.2l33.9-2.6l-1.1-14
			c-7.7-2-13.3-8.9-13.3-17.2c0-2.1,0.4-4.1,1-6l-27.5,2.1L13.1,34.7z"/>
		<path id="XMLID_101_" d="M51.6,38.2l1.1,14l-33.9,2.6c-1.7,1.1-3.7,1.7-5.8,1.7c-1,0-2-0.1-2.9-0.4l0.3,4l47.3-3.6l-1.4-17.8
			c-0.1,0-0.2,0-0.3,0C54.5,38.7,53,38.5,51.6,38.2z"/>
		<path id="XMLID_100_" d="M13.1,34.7l-1.3-17.5L39.3,15c0.6-1.8,1.5-3.4,2.7-4.9L6.8,12.8l1.7,22.8c1.4-0.6,2.9-0.9,4.4-0.9
			C13,34.7,13.1,34.7,13.1,34.7z"/>
		<path id="XMLID_99_" d="M51.6,38.2l-1.8-24L39.3,15c-0.7,1.9-1,3.9-1,6C38.2,29.3,43.9,36.2,51.6,38.2z"/>
		<path id="XMLID_98_" d="M73.8,21c0-9.8-8-17.8-17.8-17.8c-5.7,0-10.8,2.7-14.1,6.9L54,9.2l2.2,29.5C66,38.6,73.8,30.7,73.8,21z"/>
		<path id="XMLID_97_" class="st0" d="M41.9,10.1c-1.1,1.5-2,3.1-2.7,4.9l10.5-0.8l1.8,24c1.4,0.4,2.9,0.6,4.4,0.6
			c0.1,0,0.2,0,0.3,0L54,9.2L41.9,10.1z"/>
		<path id="XMLID_96_" d="M23.8,45.5c0-6-4.8-10.8-10.7-10.9l1.6,20.4l4.1-0.3C21.8,52.8,23.8,49.4,23.8,45.5z"/>
		<path id="XMLID_95_" d="M2.1,45.5c0,5,3.4,9.2,8,10.5L8.5,35.6C4.7,37.3,2.1,41.1,2.1,45.5z"/>
		<path id="XMLID_94_" class="st0" d="M18.7,54.8l-4.1,0.3l-1.6-20.4c-0.1,0-0.1,0-0.2,0c-1.6,0-3.1,0.3-4.4,0.9L10.1,56
			c0.9,0.3,1.9,0.4,2.9,0.4C15.1,56.4,17.1,55.8,18.7,54.8z"/>
	</g>
</g>
<text id="XMLID_1_" transform="matrix(1 0 0 1 -761.2639 -55.1947)" style="font-family:'Montserrat-ExtraBold'; font-size:54.215px;">ANDRÉ PARR</text>
<g id="XMLID_42_">
	
		<rect id="XMLID_53_" x="-743.4" y="157.9" transform="matrix(0.9971 -7.586767e-02 7.586767e-02 0.9971 -19.7886 -49.8334)" width="155.2" height="155.2"/>
	<g id="XMLID_43_">
		<path id="XMLID_52_" class="st1" d="M-735.1,235.6c21.6,0.3,38.9,17.9,38.9,39.5c0,14.1-7.4,26.5-18.5,33.5l123.1-9.4l-3.9-50.9
			c-27.8-7.1-48.4-32.4-48.4-62.5c0-7.6,1.3-14.9,3.7-21.6l-99.8,7.6L-735.1,235.6z"/>
		<path id="XMLID_51_" class="st0" d="M-595.5,248.4l3.9,50.9l-123.1,9.4c-6.1,3.8-13.3,6-21,6c-3.6,0-7.1-0.5-10.5-1.4l1.1,14.7
			l171.6-13.1l-4.9-64.5c-0.4,0-0.7,0-1.1,0C-585,250.4-590.4,249.7-595.5,248.4z"/>
		<path id="XMLID_50_" class="st0" d="M-735.1,235.6l-4.8-63.7l99.8-7.6c2.3-6.4,5.6-12.4,9.7-17.7l-127.7,9.7l6.3,82.7
			c4.9-2.2,10.4-3.4,16.1-3.4C-735.5,235.5-735.3,235.6-735.1,235.6z"/>
		<path id="XMLID_49_" d="M-595.5,248.4l-6.6-87l-38,2.9c-2.4,6.8-3.7,14-3.7,21.6C-643.9,216-623.3,241.2-595.5,248.4z"/>
		<path id="XMLID_48_" d="M-514.9,185.9c0-35.6-28.9-64.5-64.5-64.5c-20.8,0-39.3,9.8-51,25.1l44-3.3l8.2,107.2
			C-543.2,249.8-514.9,221.2-514.9,185.9z"/>
		<path id="XMLID_47_" class="st0" d="M-630.5,146.5c-4.1,5.3-7.4,11.3-9.7,17.7l38-2.9l6.6,87c5.1,1.3,10.5,2,16.1,2
			c0.4,0,0.7,0,1.1,0l-8.2-107.2L-630.5,146.5z"/>
		<path id="XMLID_46_" d="M-696.2,275.1c0-21.6-17.4-39.2-38.9-39.5l5.6,74.2l14.8-1.1C-703.6,301.6-696.2,289.2-696.2,275.1z"/>
		<path id="XMLID_45_" d="M-775.3,275.1c0,18.2,12.3,33.5,29.1,38.1l-5.6-74.2C-765.6,245.2-775.3,259-775.3,275.1z"/>
		<path id="XMLID_44_" class="st0" d="M-714.7,308.6l-14.8,1.1l-5.6-74.2c-0.2,0-0.4,0-0.6,0c-5.7,0-11.2,1.2-16.1,3.4l5.6,74.2
			c3.3,0.9,6.9,1.4,10.5,1.4C-728,314.6-720.8,312.4-714.7,308.6z"/>
	</g>
</g>
</svg>
